<?xml version="1.0" encoding="UTF-8"?>
<svg xmlns="http://www.w3.org/2000/svg" xmlns:xlink="http://www.w3.org/1999/xlink" version="1.1" viewBox="0 0 630 155">
  <defs>
    <style>
      .cls-1 {
        fill-rule: evenodd;
      }

      .cls-1, .cls-2 {
        fill: #fff;
      }

      .cls-3 {
        fill: url(#linear-gradient-2);
      }

      .cls-4 {
        fill: none;
        stroke: #fff;
        stroke-miterlimit: 10;
        stroke-width: 2.5px;
      }

      .cls-5 {
        fill: url(#linear-gradient);
      }

      .cls-6 {
        fill: #ef3742;
      }

      .cls-7 {
        fill: #ffc62f;
      }

      .cls-8 {
        fill: #7d65ac;
      }

      .cls-9 {
        fill: #faa61b;
      }
    </style>
    <linearGradient id="linear-gradient" x1="462" y1="87.4" x2="542.5" y2="87.4" gradientUnits="userSpaceOnUse">
      <stop offset="0" stop-color="#ef3742"/>
      <stop offset="1" stop-color="#f05a28"/>
    </linearGradient>
    <linearGradient id="linear-gradient-2" x1="532.7" y1="87.4" x2="616.7" y2="87.4" gradientUnits="userSpaceOnUse">
      <stop offset="0" stop-color="#f05a28"/>
      <stop offset="1" stop-color="#ffc62f"/>
    </linearGradient>
  </defs>
  <!-- Generator: Adobe Illustrator 28.7.8, SVG Export Plug-In . SVG Version: 1.2.0 Build 200)  -->
  <g>
    <g id="Layer_1">
      <g>
        <g>
        <!-- Presented by Cigna -->
          <!-- <g>
            <path class="cls-2" d="M187.4,201.2h-2.3v4.5h-2.3v-11.8h4.6c2.4,0,3.9,1.7,3.9,3.7s-1.5,3.7-3.9,3.7ZM187.3,195.9h-2.2v3.2h2.2c1,0,1.7-.6,1.7-1.6s-.7-1.6-1.7-1.6Z"/>
            <path class="cls-2" d="M201.5,205.7l-2.3-4.7h-1.7v4.7h-2.3v-11.8h4.6c2.4,0,3.8,1.6,3.8,3.6s-1,2.7-2.2,3.1l2.6,5.1h-2.7ZM199.7,195.9h-2.2v3.1h2.2c1,0,1.7-.6,1.7-1.6s-.7-1.6-1.7-1.6Z"/>
            <path class="cls-2" d="M208,205.7v-11.8h7.8v2.1h-5.5v2.8h4.7v2.1h-4.7v2.9h5.5v2.1h-7.8Z"/>
            <path class="cls-2" d="M223.2,205.8c-1.8,0-3.2-.4-4.3-1.6l1.5-1.5c.7.7,1.8,1,2.9,1s2.1-.5,2.1-1.5-.1-.8-.4-1c-.2-.2-.5-.3-1-.4l-1.4-.2c-1-.1-1.8-.5-2.3-1-.6-.6-.8-1.3-.8-2.3,0-2.1,1.6-3.6,4.1-3.6s2.8.4,3.8,1.4l-1.5,1.4c-.7-.7-1.6-.8-2.4-.8-1.2,0-1.8.7-1.8,1.5s0,.6.3.8c.2.2.6.4,1.1.5l1.4.2c1.1.2,1.8.5,2.3.9.6.6.9,1.5.9,2.5,0,2.3-1.9,3.6-4.4,3.6Z"/>
            <path class="cls-2" d="M231.7,205.7v-11.8h7.8v2.1h-5.5v2.8h4.7v2.1h-4.7v2.9h5.5v2.1h-7.8Z"/>
            <path class="cls-2" d="M250.7,205.7l-4.7-7.3v7.3h-2.3v-11.8h2.1l4.7,7.3v-7.3h2.3v11.8h-2.1Z"/>
            <path class="cls-2" d="M262,195.9v9.8h-2.3v-9.8h-3.1v-2.1h8.5v2.1h-3.1Z"/>
            <path class="cls-2" d="M268.9,205.7v-11.8h7.8v2.1h-5.5v2.8h4.7v2.1h-4.7v2.9h5.5v2.1h-7.8Z"/>
            <path class="cls-2" d="M288.3,204.6c-.8.8-1.9,1.1-3.1,1.1h-4.3v-11.8h4.3c1.2,0,2.3.3,3.1,1.1,1.3,1.3,1.2,3,1.2,4.7s.1,3.5-1.2,4.8ZM286.7,196.6c-.4-.5-.9-.7-1.7-.7h-1.7v7.7h1.7c.8,0,1.3-.2,1.7-.7.4-.5.5-1.4.5-3.2s0-2.5-.5-3.1Z"/>
            <path class="cls-2" d="M304.5,205.7h-5v-11.8h4.8c2.3,0,3.7,1.3,3.7,3.3s-.9,2.2-1.5,2.4c.7.3,1.6,1.1,1.6,2.7s-1.5,3.4-3.6,3.4ZM304.1,195.9h-2.3v2.7h2.3c1,0,1.5-.5,1.5-1.4s-.5-1.4-1.5-1.4ZM304.3,200.7h-2.4v2.9h2.4c1,0,1.5-.7,1.5-1.5s-.5-1.4-1.5-1.4Z"/>
            <path class="cls-2" d="M317,200.8v4.9h-2.3v-4.9l-3.6-7h2.5l2.2,4.8,2.2-4.8h2.5l-3.6,7Z"/>
          </g> -->
          <!-- <g>
            <path class="cls-2" d="M360,199.9c.5.2.8.6.8.6-1.1,3.6-3.5,6.9-8.7,6.9s-10.4-4-10.4-10.4,5.5-11.1,11.4-11.1,4.7.5,6.3,1.4c0,0,.1,0,.2.2,0,0,0,.2,0,.2l.2,5.4s-.3.3-1.3.3-1-.3-1-.3v-.7c0-2.4-2-4-4.5-4-4,0-5.7,3.8-5.7,7.7s2.5,7.7,6.4,7.7,3.5-1.2,5.1-3.9c0,0,.5-.2,1.2,0M445.4,203h-.5c-.8,0-1.7-.8-1.7-1.7v-14.5s0-.4-.5-.4h-1.3c-.2,0-.4.2-.4.2l-1.8,2.3c-.2.3-.4,0-.4,0h0c-1.2-1.4-3.1-3.1-6.7-3.1-5.3,0-10.4,3.9-10.4,11s4.4,10.6,9.7,10.6,5-1.3,6.5-3.3v2.5s0,.6.6.7c.6.1,1,0,1,0l5.7-2.4s.3-.3.3-.9-.3-.8-.3-.8M432.6,204.7c-3.7,0-5.2-3.6-5.2-8.1s1.5-8,5.2-8,5.2,3.6,5.2,8-1.5,8.1-5.2,8.1M372.3,204.6s.3.2.3,1-.3,1.2-.3,1.2h-9.7s-.3-.5-.3-1.3.3-.9.3-.9h.5c.8,0,1.7-.8,1.7-1.7v-12.2c0-.8-.8-1.7-1.7-1.7h-.5s-.3-.2-.3-.9.3-1.3.3-1.3h9.7s.3.4.3,1.2-.3,1-.3,1h-.5c-.8,0-1.7.8-1.7,1.7v12.2c0,.8.8,1.7,1.7,1.7h.5M367.4,177.4c1.9,0,3.4,1.6,3.4,3.5s-1.5,3.5-3.4,3.5-3.4-1.6-3.4-3.5,1.5-3.5,3.4-3.5M397.9,209.9h1.1v2.6c.3-.5.7-.8,1.5-.8,1.1,0,1.7.7,1.7,1.8v3h-1.1v-2.7c0-.7-.4-1.2-1-1.2s-1.1.4-1.1,1.2v2.7h-1.1v-6.6ZM403.2,214.1h0c0-1.4,1-2.5,2.3-2.5s2.3,1.2,2.3,2.6,0,.2,0,.3h-3.5c.1.8.7,1.2,1.4,1.2s.9-.2,1.3-.6l.6.6c-.5.5-1.1.9-1.9.9-1.4,0-2.4-1-2.4-2.5M406.7,213.8c0-.7-.5-1.3-1.2-1.3s-1.1.5-1.2,1.3h2.4ZM411.8,216.5v-.6c-.3.4-.8.7-1.5.7s-1.7-.5-1.7-1.5h0c0-1.1.8-1.6,1.9-1.6s.9,0,1.3.2h0c0-.7-.4-1.1-1.2-1.1s-.9.1-1.4.3l-.3-.9c.5-.2,1-.4,1.8-.4,1.4,0,2.1.7,2.1,2v2.8h-1.1ZM411.8,214.5c-.3-.1-.7-.2-1.1-.2-.7,0-1.1.3-1.1.7h0c0,.5.4.7.9.7s1.3-.4,1.3-1v-.3ZM414.2,209.9h1.1v6.6h-1.1v-6.6ZM417,215.2v-2.5h-.6v-.9h.6v-1.3h1.1v1.3h1.3v.9h-1.3v2.3c0,.4.2.6.6.6s.5,0,.7-.2v.9c-.3.2-.6.2-1,.2-.8,0-1.4-.4-1.4-1.4M420.5,209.9h1.1v2.6c.3-.5.7-.8,1.5-.8,1.1,0,1.7.7,1.7,1.8v3h-1.1v-2.7c0-.7-.4-1.2-1-1.2s-1.1.4-1.1,1.2v2.7h-1.1v-6.6ZM425.8,214.1h0c0-1.4,1-2.5,2.5-2.5s1.5.3,1.9.8l-.7.7c-.3-.4-.7-.6-1.2-.6-.8,0-1.4.7-1.4,1.5h0c0,.9.6,1.5,1.4,1.5s.9-.2,1.2-.6l.7.6c-.5.5-1,.9-1.9.9-1.4,0-2.5-1.1-2.5-2.5M434.1,216.5v-.6c-.3.4-.8.7-1.5.7s-1.7-.5-1.7-1.5h0c0-1.1.8-1.6,1.9-1.6s.9,0,1.3.2h0c0-.7-.4-1.1-1.2-1.1s-.9.1-1.4.3l-.3-.9c.5-.2,1-.4,1.8-.4,1.4,0,2.1.7,2.1,2v2.8h-1.1ZM434.1,214.5c-.3-.1-.7-.2-1.1-.2-.7,0-1.1.3-1.1.7h0c0,.5.4.7.9.7s1.3-.4,1.3-1v-.3ZM436.5,211.7h1.1v1.1c.3-.7.8-1.2,1.7-1.2v1.2h0c-1,0-1.6.6-1.6,1.9v1.8h-1.1v-4.8ZM439.8,214.1h0c0-1.4,1-2.5,2.3-2.5s2.3,1.2,2.3,2.6,0,.2,0,.3h-3.5c.1.8.7,1.2,1.4,1.2s.9-.2,1.3-.6l.6.6c-.5.5-1.1.9-1.9.9-1.4,0-2.4-1-2.4-2.5M443.3,213.8c0-.7-.5-1.3-1.2-1.3s-1.1.5-1.2,1.3h2.4ZM421.1,204.6s.3.2.3,1-.3,1.2-.3,1.2h-9.7s-.3-.5-.3-1.3.3-.9.3-.9h.5c.8,0,1.7-.8,1.7-1.7v-9.8c0-2.7-1.7-4-3.9-4s-4.6,2-4.6,5.4v8.4c0,.8.8,1.7,1.7,1.7h.5s.3,0,.3,1-.3,1.3-.3,1.3h-9.7s-.3-.4-.3-1.3.3-.9.3-.9h.5c.8,0,1.7-.8,1.7-1.7v-11.4c0-.8-.8-1.7-1.7-1.7h-.5c-.2-.3-.3-.6-.3-1.1s.2-.9.3-1.1c2.4,0,5.1-1,5.7-1.2.8-.3,1.5,0,1.5.6s0,2.4,0,2.4c1.5-2.2,3.9-3.7,7.1-3.7s7.3,2.3,7.3,7.1v10c0,.8.8,1.7,1.7,1.7h.5ZM395.3,188.6c0-.5-.2-1-.3-1.2h-5.5c-1.5-1-3.3-1.5-5.4-1.5-5.1,0-8.8,3.4-8.8,7.7s1.4,4.8,3.4,6.1l-3.5,4.3s-.4.8-.4,1.6.5,1.3.5,1.3h2.5c-1.8,1.1-2.6,2.9-2.6,4.4,0,3,2.6,5.4,8.4,5.4s11.3-3.1,11.3-7.9-2.1-5.8-7.2-5.8h-7.8l1.5-2.1c.9.3,1.6.4,2.8.4,5.1,0,8.8-3.5,8.8-7.7s-.4-2.5-1-3.6h3c.2-.3.3-.7.3-1.3M381.3,206.8h4.6c2.8,0,3.7,1.5,3.7,3.1s-1.9,4-5.3,4-5-1.4-5-3.6.8-2.9,2-3.5M384.1,198.7c-2.3,0-3.8-1.9-3.8-5.1s1.5-5.1,3.8-5.1,3.7,1.9,3.7,5.1-1.5,5.1-3.7,5.1"/>
            <path class="cls-1" d="M364.9,168.9c0-2.2,1-4.2,2.6-5.5,1.6,1.3,2.5,3.3,2.5,5.5,0,2.2-1,4.2-2.6,5.5-1.6-1.3-2.5-3.3-2.5-5.5M372.6,163.3c-.6,1.5-.5,3.2.2,4.6,1.5-.5,2.7-1.6,3.4-3.1.6-1.5.5-3.2-.2-4.6-1.5.5-2.7,1.6-3.4,3.1M358.7,164.8c.6,1.5,1.9,2.6,3.4,3.1.7-1.4.8-3,.2-4.6-.6-1.5-1.9-2.6-3.4-3.1-.7,1.4-.8,3-.2,4.6M349.8,175.7c1.5.6,3.2.5,4.6-.2-.5-1.5-1.6-2.7-3.1-3.4-1.5-.6-3.2-.5-4.6.2.5,1.5,1.6,2.7,3.1,3.4M383.5,172.2c-1.5.6-2.6,1.9-3.1,3.4,1.4.7,3,.8,4.6.2,1.5-.6,2.6-1.9,3.1-3.4-1.4-.7-3-.8-4.6-.2M379.4,178.4c-2.2,0-4.2,1-5.5,2.5,1.3,1.6,3.3,2.6,5.5,2.6,2.2,0,4.2-1,5.5-2.5-1.3-1.6-3.3-2.6-5.5-2.6M374.1,170.7c-1.6,1.6-2.3,3.6-2.1,5.7,2,.2,4.1-.5,5.7-2.1,1.6-1.6,2.3-3.6,2.1-5.7-2-.2-4.1.5-5.7,2.1M355.5,178.4c-2.2,0-4.2,1-5.5,2.6,1.3,1.6,3.3,2.5,5.5,2.5,2.2,0,4.2-1,5.5-2.6-1.3-1.6-3.3-2.5-5.5-2.5M360.8,170.7c-1.6-1.6-3.7-2.2-5.7-2.1-.2,2,.5,4.1,2.1,5.7,1.6,1.6,3.7,2.2,5.7,2.1.2-2-.5-4.1-2.1-5.7"/>
          </g> -->
        </g>
        <g>
          <g>
            <path class="cls-7" d="M198.4,99.8l1,3.8h194.8v-3.8h-195.7Z"/>
            <path class="cls-9" d="M195,86.3l1,3.8h198.2v-3.8h-199.1Z"/>
            <path class="cls-9" d="M228.1,138.3h-4.4l-5.4-17.9v5.3c.1,0,.1,12.7.1,12.7h-4.4v-25.6h6.5l5.4,18,5.5-18h6.5v25.6h-4.4v-17.9c.1,0-5.3,17.9-5.3,17.9Z"/>
            <path class="cls-9" d="M255.2,112.6l6.7,25.7h-4.7l-1.4-5.8h-7.2l-1.4,5.8h-4.8l6.7-25.7h6.1ZM249.5,128.6h5.3l-2.7-11-2.7,11Z"/>
            <path class="cls-9" d="M270.8,138.3h-4.4v-25.6h8c4,0,8.6,1.2,8.6,7.7v.7c0,4.1-1.8,6.1-4.2,7l4.2,10.2h-4.8l-3.7-9.5h-3.7v9.5ZM274.6,124.9c1.7,0,3.9-.6,3.9-4v-.4c0-3.4-2.2-4-3.9-4h-3.8v8.4h3.8Z"/>
            <path class="cls-9" d="M299.5,112.6l6.7,25.7h-4.7l-1.4-5.8h-7.2l-1.4,5.8h-4.8l6.7-25.7h6.1ZM293.8,128.6h5.3l-2.7-11-2.7,11Z"/>
            <path class="cls-9" d="M318.2,138.3h-4.4v-21.7h-6.1v-3.8h16.6v3.8h-6.1v21.7Z"/>
            <path class="cls-9" d="M346.3,112.7v25.6h-4.4v-11.1h-8.7v11.1h-4.4v-25.6h4.4v10.6h8.7v-10.6h4.4Z"/>
            <path class="cls-9" d="M351.7,126.2v-1.3c0-8.8,3-12.6,9.5-12.6s9.4,3.7,9.4,12.6v1.3c0,8.8-3,12.6-9.4,12.6s-9.5-3.7-9.5-12.6ZM361.3,134.9c3.6,0,4.8-2.9,4.8-8.7v-1.3c0-5.8-1.2-8.7-4.8-8.7h-.3c-3.6,0-4.8,2.9-4.8,8.7v1.3c0,5.8,1.2,8.7,4.8,8.7h.3Z"/>
            <path class="cls-9" d="M394.2,138.3h-4.7l-9.4-17.6v5.4c.1,0,.1,12.2.1,12.2h-4.2v-25.6h4.7l9.4,17.6v-5.4c-.1,0-.1-12.2-.1-12.2h4.2v25.6Z"/>
            <path class="cls-9" d="M399.2,132.8c1.5,0,2.7,1.2,2.7,2.7s-1.2,2.7-2.7,2.7-2.7-1.2-2.7-2.7,1.3-2.7,2.7-2.7ZM399.2,137.9c1.3,0,2.4-1,2.4-2.4s-1-2.4-2.4-2.4-2.4,1-2.4,2.4c0,1.3,1.1,2.4,2.4,2.4ZM398.7,137.1h-.6v-3.1h1.4c.5,0,1,.2,1,1h0c0,.5-.2.7-.5.9l.5,1.3h-.6l-.4-1.2h-.7v1.2h0ZM399.3,135.4c.2,0,.5,0,.5-.5h0c0-.5-.3-.6-.5-.6h-.6v1h.6Z"/>
            <!-- Colfax Marathon Mountains-->
            <g>
              <path class="cls-2" d="M20.7,134.8h.3c2.9,0,4-1.9,4-5h4.2v.3c0,5.8-2.8,8.4-8.5,8.4s-9-3.6-9-12v-1.3c0-8.5,2.8-12,9-12s8.5,2.6,8.5,8.6v1.1h-4.2c0-3.9-1-5.9-4-5.9h-.3c-3.5,0-4.6,2.8-4.6,8.4v1.3c0,5.5,1.1,8.4,4.6,8.4Z"/>
              <path class="cls-2" d="M47.4,126.4v-1.3c0-8.5,2.9-12,9.1-12s9.1,3.6,9.1,12v1.3c0,8.5-2.9,12-9.1,12s-9.1-3.6-9.1-12ZM56.7,134.8c3.4,0,4.6-2.8,4.6-8.4v-1.3c0-5.5-1.2-8.4-4.6-8.4h-.3c-3.4,0-4.6,2.8-4.6,8.4v1.3c0,5.5,1.2,8.4,4.6,8.4h.3Z"/>
              <path class="cls-2" d="M84.4,138.1v-24.5h4.2v20.8h9.5v3.7h-13.7Z"/>
              <path class="cls-2" d="M130.4,113.5v3.7h-10.2v6.5h8.6v3.6h-8.6v10.7h-4.2v-24.5h14.4Z"/>
              <path class="cls-2" d="M158.2,113.4l6.4,24.6h-4.5l-1.4-5.6h-6.9l-1.4,5.6h-4.6l6.4-24.6h5.8ZM152.8,128.8h5.1l-2.5-10.6-2.6,10.6Z"/>
              <path class="cls-2" d="M187.8,125.3l-6.3-11.8h4.9l4.4,8.8,4.4-8.8h4.9l-6.3,11.8,6.3,12.8h-4.7l-4.7-9.8-4.6,9.8h-4.7l6.3-12.7Z"/>
            </g>
            <path class="cls-6" d="M360.3,72.9v-15.8h-9.8v-19.6c0-3.9-1.2-7-3.5-9.1-2.2-2-4.8-2.6-6.6-2.8v-9h-1.9c-13.9,0-15,9.8-15,12.7v37.3h-5.1v-22.2h-16.7v28h-7.8v-27.8h-13.8v14.9h-5.1v-29.2h-18.3v14.3h-13.7v26.2h-7.4v-22.3h-21.5v23.7h-17.1s0,0,0,0c-.6.9-1.4,1.6-2.5,2-.7.2-1.5.4-2.5.5l.3,1.3h25.6v-23.7h13.9v22.3h15v-26.2h13.7v-14.3h10.7v29.2h12.7v-14.9h6.2v27.8h15.4v-28h9.1v22.2h12.7V29.3c0-3.8,1.7-8.2,9.3-8.9v9.1l2.1-.2s3.5-.2,5.8,1.9c1.5,1.4,2.2,3.5,2.2,6.3v23.4h9.8v15.8h37.6v-3.8h-33.8Z"/>
            <path class="cls-8" d="M227.4,45.4l-12.5-12.5-16.4,16.4c0,.6,0,1.2,0,1.9v3.5l16.4-16.4,10.3,10.3h4.4l16.5-16.5,10.7,10.7v-5.4l-10.7-10.7-18.8,18.8ZM311.8,32.5l-4.6,4.6-23.8-23.8-17,17h5.4l11.6-11.6,23.8,23.8,4.6-4.6,6.6,6.6h0s1.5,1.5,1.5,1.5l3.6-3.6v-5.4l-3.6,3.6-8.1-8.1ZM368.3,36.4l-10.3,10.3-7.4-7.4v5.4l7.4,7.4,10.3-10.3,25.9,25.9v-5.4l-25.9-25.9Z"/>
            <path class="cls-2" d="M12.4,40.3h15.3c2.2,0,4,.3,5.3.9,1.3.6,2.3,1.4,2.9,2.3.6,1,1,2,1.2,3.3.2,1.2.3,2.5.3,3.7v42.1c0,2.1-.1,3.8-.4,5.2-.3,1.4-.8,2.5-1.5,3.4-.7.8-1.6,1.4-2.7,1.8-1.2.4-2.6.5-4.2.5H12.4v-63.2ZM20.7,48.1v47.6h5.6c1.2,0,2-.3,2.3-1,.3-.7.5-1.5.5-2.5v-39.7c0-1.2-.2-2.2-.5-3.1-.3-.9-1.3-1.3-3-1.3h-4.9Z"/>
            <path class="cls-2" d="M47.6,40.3h20.8v8h-12.3v18.4h11.1v7.8h-11.1v21h12.4v8h-20.9v-63.2Z"/>
            <path class="cls-2" d="M144.4,40.3h20.8v8h-12.3v18.4h11.1v7.8h-11.1v21h12.4v8h-20.9v-63.2Z"/>
            <polygon class="cls-2" points="94.9 40.3 94.9 77.1 84 40.3 76.3 40.3 76.3 103.5 84 103.5 84 67.2 94.9 103.5 102.7 103.5 102.7 40.3 94.9 40.3"/>
            <polygon class="cls-2" points="131 40.3 123.8 81.5 116.5 40.3 108.1 40.3 119.9 103.5 119.9 103.5 127.7 103.5 127.7 103.5 139.4 40.3 131 40.3"/>
            <path class="cls-2" d="M199.4,103.5l-7.2-28.7c1,0,1.8-.3,2.5-.5,1.1-.4,2-1,2.5-2s.9-2.1,1.1-3.6c.1-1.5.2-3.3.2-5.5v-12c0-1.7,0-3.2-.2-4.5-.1-1.3-.5-2.5-1.1-3.4-.6-1-1.4-1.7-2.6-2.1-1.1-.5-2.7-.7-4.7-.7h-16.3v63.2h8.1v-28.6h2.6l6.8,28.6h8.2ZM181.8,48.1h5.2c1.4,0,2.3.3,2.6.8.4.5.5,1.3.5,2.4v13.2c0,1.2-.2,2-.7,2.3-.5.4-1.2.5-2.3.5h-5.3v-19.2Z"/>
          </g>
          <!-- 20years -->
          <line class="cls-4" x1="429.3" y1="36.4" x2="429.3" y2="138.3"/>
          <g>
            <path class="cls-5" d="M532,129.2h-60v-13.5c0-7.7,3.4-11.8,9.5-14.6l33.2-15.3c8.7-3.9,13.2-4.9,13.2-15.7v-5.8c0-10.8-4.8-14.4-14.4-14.4h-38.9v-4.3h39.7c10.7,0,18.4,4.8,18.4,17.8v7.7c0,13-7.6,14.9-17.1,19.4l-31.6,14.6c-4.9,2.2-7.4,6.5-7.4,13.2v6.6h53.4c-.9-2.7-1.5-5.8-1.7-9.1h-41.9v-.6c0-1,.7-2.8,3.5-3.9l36.8-15.2c11.9-4.9,15.7-13.7,15.7-25.3v-11.9c0-17-11.8-22.4-24.6-22.4h-51.6v22.6h43.9c4.9,0,7.7,1.7,7.7,5.9v4.1c0,4.2-1.5,5.8-4.3,7l-37,16.6c-8.8,3.9-14.6,13-14.6,24.8v20.9h79c-3.9-2.2-6.9-5.3-9-9.1Z"/>
            <path class="cls-3" d="M587.8,124.8c9.7,0,14.4-3.6,14.4-14.4v-45.9c0-10.8-4.8-14.6-14.4-14.6h-25.8c-9.5,0-14.6,3.8-14.6,14.6v45.9c0,10.8,4.9,14.4,14.4,14.4h26ZM557.2,108.7v-42.6c0-5.9,1.5-7,7-7h20.9c5.8,0,7,1,7,7v42.6c0,5.5-1.4,7-7,7h-20.9c-5.5,0-7-1.4-7-7ZM589.6,36.4h-29.7c-7.8,0-14.1,1.7-18.6,5,2,2.5,3.8,5.9,4.8,10.4,3.2-4.4,8.7-6.3,15.1-6.3h27.5c10.7,0,18.2,4.9,18.2,18v47.8c0,13-7.6,17.8-18.2,17.8h-27.6c-10.5,0-18.2-4.8-18.2-17.8v-23.3c-2.3,4.1-5.7,7.4-10.1,9.9v15.1c0,15.4,8,25.3,27.2,25.3h29.7c18.1,0,27.1-7.7,27.1-25.4v-51.1c0-17.5-7.9-25.4-27.1-25.4Z"/>
            <g>
              <path class="cls-2" d="M562.7,89.4l-1.7-8.6h1.5l.5,3.2c.2,1.1.3,2.2.5,3.3h0c.2-1.1.3-2.2.5-3.3l.5-3.2h1.5l-1.7,8.6v4.5h-1.5v-4.5Z"/>
              <path class="cls-2" d="M567.1,80.8h3.4v1.1h-1.9v4.7h1.9v1.1h-1.9v4.9h1.9v1.1h-3.4v-13.1Z"/>
              <path class="cls-2" d="M574.9,91.4h-1.6l-.2,2.5h-1.5l1.3-13.1h2.5l1.3,13.1h-1.5l-.2-2.5ZM574.8,90.2l-.5-6.2v-1.8h-.3v1.8c-.1,0-.6,6.2-.6,6.2h1.4Z"/>
              <path class="cls-2" d="M578,80.8h2.6c1.4,0,1.8.6,1.8,1.7v3.5c0,.9-.4,1.3-1.2,1.4h0c.9,0,1.2.5,1.2,1.4v3.2c0,.6,0,1.2.2,1.8h-1.5c-.2-.6-.2-1.2-.2-1.8v-4h-1.4v5.9h-1.5v-13.1ZM580.8,86.9v-5h-1.3v5h1.3Z"/>
              <path class="cls-2" d="M584,92.3v-3h1.5v3.5h1.3v-4l-2.8-2.5v-3.8c0-1.1.7-1.7,2.2-1.7s2.2.6,2.2,1.7v2.6h-1.5v-3.2h-1.3v3.7l2.9,2.6v4.1c0,1.1-.7,1.7-2.2,1.7s-2.2-.6-2.2-1.7Z"/>
            </g>
          </g>
        </g>
      </g>
    </g>
  </g>
</svg>