<?xml version='1.0' encoding='utf-8'?>
<svg xmlns="http://www.w3.org/2000/svg" version="1.0" width="3100.000000pt" height="1999.000000pt" viewBox="0 0 3100.000000 1999.000000" preserveAspectRatio="xMidYMid meet"> <metadata> Created by potrace 1.13, written by Peter Selinger 2001-2015 </metadata> <g transform="translate(0.000000,1999.000000) scale(0.100000,-0.100000)" fill="#FC4C02" stroke="none"> <path d="M15677 19155 c-190 -32 -323 -93 -435 -199 -59 -56 -81 -87 -117 -160 -122 -247 -156 -659 -84 -1008 25 -119 55 -205 132 -375 67 -147 75 -173 83 -284 11 -156 -34 -269 -149 -374 -90 -82 -212 -153 -366 -214 -69 -28 -198 -80 -286 -116 -88 -37 -225 -92 -305 -122 -132 -51 -163 -68 -340 -188 -116 -79 -270 -172 -380 -230 -401 -211 -388 -202 -980 -628 -536 -385 -558 -402 -605 -488 -28 -51 -30 -62 -33 -181 -6 -210 45 -441 178 -798 113 -306 247 -557 469 -880 225 -329 509 -755 529 -796 53 -105 65 -162 72 -344 6 -155 9 -182 32 -237 34 -83 111 -204 152 -241 57 -49 59 -61 41 -169 -10 -58 -16 -150 -16 -227 0 -206 39 -368 128 -538 l46 -86 -48 -84 c-153 -264 -315 -622 -315 -695 0 -17 14 -57 30 -88 45 -85 41 -124 -40 -455 -38 -157 -110 -451 -160 -655 -115 -470 -116 -475 -146 -475 -12 0 -60 14 -106 31 -46 17 -126 46 -178 64 -52 18 -169 61 -260 95 -263 98 -298 110 -427 135 -154 31 -219 31 -341 1 -249 -63 -220 -61 -902 -59 -643 3 -784 9 -913 43 -127 32 -215 84 -480 283 -138 104 -276 200 -306 214 -31 15 -62 35 -69 45 -24 34 -91 24 -163 -24 -148 -99 -691 -672 -993 -1049 -195 -243 -259 -378 -345 -725 -106 -426 -106 -515 2 -594 50 -37 67 -37 98 -4 40 43 310 280 410 360 188 150 336 220 664 315 84 24 149 53 280 124 493 267 594 293 1050 266 392 -24 1181 -160 1615 -280 41 -11 85 -21 96 -21 12 0 35 -7 50 -15 16 -8 36 -15 45 -15 29 0 589 -159 934 -265 61 -19 191 -54 291 -79 394 -99 556 -101 709 -12 58 34 179 165 251 271 65 95 229 366 409 675 147 251 505 889 517 920 5 14 32 64 60 113 l50 87 70 -62 c38 -35 87 -76 108 -93 21 -16 133 -109 249 -206 115 -98 281 -232 368 -300 196 -153 354 -309 411 -404 22 -39 53 -106 69 -150 l28 -80 1 -395 c1 -467 8 -560 60 -840 27 -142 49 -232 65 -265 5 -11 38 -105 73 -210 67 -199 136 -388 204 -565 176 -453 220 -629 257 -1029 8 -91 15 -230 15 -310 0 -139 -1 -146 -24 -170 -28 -31 -42 -116 -52 -331 l-6 -135 41 -139 c23 -76 41 -146 41 -153 0 -8 -9 -28 -21 -44 l-20 -29 -5360 0 -5359 0 -80 -76 c-99 -94 -132 -144 -165 -245 -39 -123 -55 -223 -55 -356 0 -169 31 -304 100 -431 16 -30 30 -62 30 -69 0 -8 -12 -37 -26 -66 -33 -63 -134 -317 -134 -334 0 -10 49 -13 210 -13 l210 0 2 -212 3 -213 439 -3 c345 -2 441 0 448 10 4 7 8 104 8 216 l0 202 3355 0 3355 0 2 -213 3 -212 442 -3 442 -2 6 54 c4 30 6 127 4 215 l-4 161 2663 0 c2557 0 2662 -1 2662 -18 0 -10 -4 -22 -8 -27 -5 -6 -18 -37 -30 -70 -12 -33 -39 -111 -61 -173 -22 -62 -37 -120 -34 -128 4 -12 339 -14 2504 -14 2412 0 2499 1 2499 18 0 17 -118 348 -141 397 -5 11 -13 34 -18 50 -12 39 -93 267 -166 465 -31 85 -71 198 -90 250 -18 52 -55 156 -83 230 -27 74 -75 205 -106 290 -71 195 -97 256 -140 333 -43 77 -135 180 -189 212 -79 46 -303 88 -627 120 -158 15 -591 45 -650 45 l-33 0 6 318 c3 174 11 608 18 963 l13 646 -24 93 c-12 51 -40 138 -62 194 -58 150 -232 497 -319 639 -16 26 -29 49 -29 52 0 12 -243 413 -358 590 -46 72 -99 153 -117 180 -92 142 -485 729 -573 855 -56 80 -106 152 -112 160 -45 67 -224 319 -235 332 -8 10 -26 35 -39 55 -14 21 -66 94 -116 163 -215 295 -292 411 -457 690 -96 162 -188 318 -205 345 -48 76 -288 475 -311 515 -10 19 -52 89 -91 155 -92 152 -193 324 -286 488 -40 71 -87 153 -105 183 -44 73 -59 165 -52 309 7 131 30 217 92 341 l45 92 47 6 c134 19 313 111 508 261 84 65 230 165 240 165 3 0 18 11 33 25 15 14 32 25 39 25 7 0 13 4 13 9 0 5 8 12 18 15 20 7 29 13 142 87 277 182 533 334 770 456 470 243 746 402 776 449 9 13 26 56 39 96 l23 73 294 7 c161 4 360 14 441 22 127 13 155 19 195 42 77 45 247 168 336 244 99 84 106 92 106 124 0 17 5 49 10 71 18 82 41 531 43 865 l2 345 -28 55 c-46 89 -130 210 -209 300 -41 47 -83 95 -93 108 -11 12 -24 22 -29 22 -6 0 -55 -30 -111 -66 -55 -36 -246 -162 -425 -279 -179 -118 -425 -280 -548 -362 -123 -81 -231 -153 -240 -158 -9 -6 -98 -64 -197 -130 -99 -66 -184 -122 -190 -125 -5 -3 -122 -79 -260 -170 -137 -91 -298 -197 -357 -235 -59 -39 -109 -75 -112 -82 -3 -7 34 -65 81 -130 143 -195 168 -233 157 -242 -5 -4 -124 -91 -264 -192 -140 -101 -257 -186 -260 -189 -25 -27 -163 -117 -515 -333 -113 -70 -291 -170 -425 -240 -274 -142 -357 -215 -403 -351 -19 -55 -22 -137 -7 -165 8 -16 -5 -31 -83 -98 -239 -205 -347 -467 -335 -808 4 -118 23 -199 73 -310 7 -16 32 -74 55 -129 40 -96 175 -372 240 -491 18 -33 46 -85 63 -115 135 -250 461 -784 627 -1030 117 -173 631 -962 734 -1125 20 -33 85 -135 144 -227 59 -92 134 -209 166 -260 33 -51 83 -129 111 -173 29 -44 60 -96 71 -115 10 -19 26 -44 35 -55 8 -11 44 -67 79 -125 35 -58 97 -157 138 -220 82 -127 111 -172 196 -305 32 -49 101 -158 154 -241 215 -333 409 -636 436 -680 79 -126 125 -359 158 -799 14 -194 15 -1321 1 -1395 l-9 -45 -219 -7 c-391 -11 -636 -50 -850 -135 -157 -62 -244 -133 -335 -273 -25 -38 -48 -69 -52 -69 -4 -1 -8 11 -10 27 l-3 27 -150 6 c-82 4 -350 7 -595 8 l-445 2 39 32 c81 66 188 173 216 216 42 63 41 112 -2 143 -31 22 -44 23 -253 29 -357 10 -561 48 -780 146 -108 48 -341 186 -499 295 -428 296 -550 483 -625 963 -40 256 -49 388 -82 1180 -6 143 -15 341 -20 440 -5 99 -12 324 -16 500 -9 469 4 541 130 698 20 26 22 41 25 174 5 181 -5 223 -62 283 -95 99 -266 339 -433 610 -82 134 -311 522 -371 629 -14 25 -59 105 -100 176 -94 163 -232 407 -232 412 0 2 -12 22 -27 46 -31 50 -129 229 -187 342 -22 44 -43 82 -46 85 -27 25 -232 486 -250 562 -62 265 -65 481 -9 753 26 124 100 381 141 489 88 232 280 593 359 674 9 10 21 27 28 39 11 22 12 21 77 -27 35 -28 75 -52 87 -54 12 -3 45 -9 72 -15 28 -6 124 -17 215 -26 356 -34 835 -99 1006 -136 143 -30 310 -78 372 -105 30 -13 60 -24 67 -24 7 0 33 16 58 35 111 85 193 402 158 612 -23 135 -103 254 -203 300 -76 36 -194 57 -318 57 -118 0 -157 -7 -325 -61 -70 -22 -91 -24 -168 -19 -202 14 -437 130 -583 290 -109 119 -118 195 -48 421 34 112 37 130 41 280 l4 160 70 145 c93 194 96 221 80 702 -12 369 -24 476 -62 554 -65 135 -241 294 -486 439 -48 29 -84 57 -87 69 -3 13 13 47 51 103 l57 83 145 0 c165 0 304 13 342 30 40 18 59 69 59 156 l0 75 48 48 c60 60 80 103 65 141 -9 25 -7 30 18 49 28 21 29 24 29 110 0 101 2 104 107 165 70 41 93 68 93 109 0 40 -20 75 -117 201 -47 61 -88 117 -90 123 -3 7 5 38 18 68 22 54 22 59 11 168 -7 61 -15 147 -19 189 l-6 77 40 38 c48 45 59 53 96 73 43 22 57 58 57 147 0 129 -44 249 -133 370 -106 143 -281 230 -537 268 -284 42 -758 58 -923 30z m-1900 -4483 c68 -178 110 -408 145 -792 18 -201 18 -903 0 -1030 -27 -191 -53 -271 -113 -358 -65 -95 -66 -95 -164 -5 -47 42 -85 80 -85 84 0 3 -28 36 -62 73 -136 144 -209 249 -254 362 -18 46 -52 118 -76 161 -69 123 -105 209 -142 338 -76 268 -166 701 -166 804 0 72 17 96 97 138 82 43 333 140 513 199 25 8 92 29 150 48 58 19 112 35 120 35 9 0 23 -21 37 -57z m10983 -13822 c0 -5 -5 -10 -11 -10 -5 0 -7 5 -4 10 3 6 8 10 11 10 2 0 4 -4 4 -10z"/> </g> </svg>